<svg xmlns="http://www.w3.org/2000/svg" xmlns:xlink="http://www.w3.org/1999/xlink" version="1.1" width="46.3291130065918" height="46.3291130065918" enable-background="new 0 0 24 24" xml:space="preserve" style=""><rect id="backgroundrect" width="100%" height="100%" x="0" y="0" fill="none" stroke="none" style="" class=""/>







<g class="currentLayer" style=""><title>Layer 1</title><rect fill="#000000" stroke="#000000" stroke-width="2" stroke-linejoin="round" stroke-dashoffset="" fill-rule="nonzero" id="svg_11" x="13.936714172363281" y="1.4810142517089844" width="17.063291549682617" height="44.430381774902344" style="color: rgb(0, 0, 0);" class="" fill-opacity="1" stroke-opacity="1"/><path fill="#ffffff" fill-opacity="1" stroke="#ffffff" stroke-opacity="1" stroke-width="2" stroke-dasharray="none" stroke-linejoin="round" stroke-linecap="butt" stroke-dashoffset="" fill-rule="nonzero" opacity="1" marker-start="" marker-mid="" marker-end="" d="M22.606485716173694,1.8734063508736787 L22.606485716173694,6.9366974453860255 " id="svg_12" class=""/><path fill="#4a90d6" fill-opacity="1" stroke="#ffffff" stroke-opacity="1" stroke-width="2" stroke-dasharray="none" stroke-linejoin="round" stroke-linecap="butt" stroke-dashoffset="" fill-rule="nonzero" opacity="1" marker-start="" marker-mid="" marker-end="" d="M22.63291465408568,40.4810011704053 L22.63291465408568,45.544293818087525 " id="svg_13" class=""/><path fill="#358104" fill-opacity="1" stroke="#358104" stroke-opacity="1" stroke-width="2" stroke-dasharray="none" stroke-linejoin="round" stroke-linecap="butt" stroke-dashoffset="" fill-rule="nonzero" opacity="1" marker-start="" marker-mid="" marker-end="" d="M8.594936983614842,23.957420671127053 C8.594936983614842,16.087194750952577 15.138056248438177,9.71231175561125 23.21598126673861,9.71231175561125 C31.293906285039036,9.71231175561125 37.83702554986238,16.087194750952577 37.83702554986238,23.957420671127053 C37.83702554986238,31.827646591301523 31.293906285039036,38.20252958664286 23.21598126673861,38.20252958664286 C15.138056248438177,38.20252958664286 8.594936983614842,31.827646591301523 8.594936983614842,23.957420671127053 z" id="svg_14" class=""/><g id="Rounded" class="" fill="#ffffff" fill-opacity="1">
	<g id="ui_x5F_spec_x5F_header_copy_5" display="none" fill="#ffffff" fill-opacity="1">
	</g>
	<path d="M31.89873348157616,15.392406568685658 H14.886074408700182 C13.705821185519412,15.392406568685658 12.77012493651123,16.38802370564092 12.77012493651123,17.629748449483998 L12.759492024590685,31.053799734274037 c0,1.2417247438430787 0.946329160928728,2.23734188079834 2.126582384109497,2.23734188079834 h17.012659072875977 c1.180253223180771,0 2.126582384109497,-0.9956171369552623 2.126582384109497,-2.23734188079834 V17.629748449483998 C34.025315865685656,16.38802370564092 33.07898670475693,15.392406568685658 31.89873348157616,15.392406568685658 zM30.83544228952141,31.053799734274037 H15.94936560075493 c-0.5848101556301117,0 -1.0632911920547485,-0.5034019231796265 -1.0632911920547485,-1.11867094039917 v-5.59335470199585 h17.012659072875977 v5.59335470199585 C31.89873348157616,30.550397811094406 31.42025244515152,31.053799734274037 30.83544228952141,31.053799734274037 zM31.89873348157616,19.867090330282338 H14.886074408700182 V18.748419389883168 c0,-0.6152690172195449 0.47848103642463685,-1.11867094039917 1.0632911920547485,-1.11867094039917 h14.88607668876648 c0.5848101556301117,0 1.0632911920547485,0.5034019231796265 1.0632911920547485,1.11867094039917 V19.867090330282338 z" id="svg_3" fill="#ffffff" fill-opacity="1"/>
</g></g></svg>