<?xml version="1.0" encoding="UTF-8" standalone="no"?>
<!DOCTYPE svg PUBLIC "-//W3C//DTD SVG 1.1//EN" "http://www.w3.org/Graphics/SVG/1.1/DTD/svg11.dtd">
<svg version="1.1" xmlns="http://www.w3.org/2000/svg" xmlns:xlink="http://www.w3.org/1999/xlink" preserveAspectRatio="xMidYMid meet" viewBox="0 0 46 46" width="46" height="46"><defs><path d="M23 0C35.71 0 46 10.3 46 23C46 35.71 35.71 46 23 46C10.3 46 0 35.71 0 23C0 10.3 10.3 0 23 0Z" id="hjB8PKjY2"></path><path d="M35.49 10.04L35.72 10.09L35.95 10.16L36.17 10.25L36.38 10.35L36.58 10.47L36.77 10.6L36.96 10.75L37.12 10.91L37.28 11.09L37.42 11.28L37.55 11.48L37.67 11.69L37.76 11.91L37.85 12.14L37.91 12.37L37.96 12.62L37.99 12.87L38 13.13L38 31.88L37.99 32.13L37.96 32.39L37.91 32.63L37.85 32.87L37.76 33.1L37.67 33.32L37.55 33.53L37.42 33.73L37.28 33.91L37.12 34.09L36.96 34.25L36.77 34.4L36.58 34.54L36.38 34.66L36.17 34.76L35.95 34.84L35.72 34.91L35.49 34.96L35.25 34.99L35 35L11 35L10.75 34.99L10.51 34.96L10.28 34.91L10.05 34.84L9.83 34.76L9.62 34.66L9.42 34.54L9.22 34.4L9.04 34.25L8.88 34.09L8.72 33.91L8.58 33.73L8.45 33.53L8.33 33.32L8.23 33.1L8.15 32.87L8.09 32.63L8.04 32.39L8.01 32.13L8 31.88L8.01 13.13L8.02 12.87L8.05 12.62L8.1 12.37L8.17 12.14L8.25 11.91L8.34 11.69L8.46 11.48L8.59 11.28L8.73 11.09L8.88 10.91L9.05 10.75L9.23 10.6L9.42 10.47L9.62 10.35L9.83 10.25L10.05 10.16L10.28 10.09L10.51 10.04L10.75 10.01L11 10L35 10L35.25 10.01L35.49 10.04ZM11 30.31L11.01 30.51L11.05 30.7L11.1 30.88L11.18 31.05L11.27 31.21L11.38 31.35L11.5 31.48L11.64 31.6L11.8 31.69L11.96 31.77L12.13 31.83L12.31 31.87L12.5 31.88L33.5 31.88L33.69 31.87L33.87 31.83L34.04 31.77L34.2 31.69L34.35 31.6L34.49 31.48L34.62 31.35L34.73 31.21L34.82 31.05L34.9 30.88L34.95 30.7L34.99 30.51L35 30.31L35 22.5L11 22.5L11 30.31ZM12.26 13.15L12.03 13.21L11.81 13.3L11.62 13.43L11.44 13.59L11.29 13.77L11.17 13.97L11.08 14.2L11.02 14.44L11 14.69L11 16.25L35 16.25L35 14.69L34.98 14.44L34.92 14.2L34.83 13.97L34.71 13.77L34.56 13.59L34.38 13.43L34.19 13.3L33.97 13.21L33.74 13.15L33.5 13.13L12.5 13.13L12.26 13.15Z" id="a2qggci4lw"></path></defs><g><g><g><use xlink:href="#hjB8PKjY2" opacity="1" fill="#358104" fill-opacity="1"></use><g><use xlink:href="#hjB8PKjY2" opacity="1" fill-opacity="0" stroke="#358104" stroke-width="0" stroke-opacity="1"></use></g></g><g><use xlink:href="#a2qggci4lw" opacity="1" fill="#ffffff" fill-opacity="1"></use><g><use xlink:href="#a2qggci4lw" opacity="1" fill-opacity="0" stroke="#000000" stroke-width="1" stroke-opacity="0"></use></g></g></g></g></svg>