<?xml version="1.0" encoding="UTF-8" standalone="no"?>
<!DOCTYPE svg PUBLIC "-//W3C//DTD SVG 1.1//EN" "http://www.w3.org/Graphics/SVG/1.1/DTD/svg11.dtd">
<svg version="1.1" xmlns="http://www.w3.org/2000/svg" xmlns:xlink="http://www.w3.org/1999/xlink" preserveAspectRatio="xMidYMid meet" viewBox="0 0 46 46" width="46" height="46"><defs><path d="M30.44 1.03C30.44 1.03 30.44 1.03 30.44 1.03C30.44 27.96 30.44 42.92 30.44 45.91C30.44 45.91 30.44 45.91 30.44 45.91C21.01 45.91 15.77 45.91 14.72 45.91C14.72 45.91 14.72 45.91 14.72 45.91C14.72 18.98 14.72 4.02 14.72 1.03C14.72 1.03 14.72 1.03 14.72 1.03C24.15 1.03 29.39 1.03 30.44 1.03Z" id="csOl0EY9N"></path><path d="M22.61 1.87L22.61 6.94" id="a2CYeUXPNM"></path><path d="M22.63 40.48L22.63 45.54" id="aCBtbxZgE"></path><path d="M23.22 9.71C31.29 9.71 37.84 16.09 37.84 23.96C37.84 31.83 31.29 38.2 23.22 38.2C15.14 38.2 8.59 31.83 8.59 23.96C8.59 16.09 15.14 9.71 23.22 9.71Z" id="bak1R6kHW"></path><path d="M32.39 15.45L32.62 15.52L32.84 15.62L33.04 15.74L33.23 15.88L33.4 16.05L33.56 16.23L33.7 16.43L33.81 16.64L33.9 16.87L33.97 17.11L34.01 17.37L34.03 17.63L34.03 31.05L34.01 31.32L33.97 31.57L33.9 31.81L33.81 32.04L33.7 32.26L33.56 32.46L33.4 32.64L33.23 32.8L33.04 32.94L32.84 33.06L32.62 33.16L32.39 33.23L32.15 33.28L31.9 33.29L14.89 33.29L14.64 33.28L14.4 33.23L14.17 33.16L13.95 33.06L13.74 32.94L13.55 32.8L13.38 32.64L13.22 32.46L13.09 32.26L12.97 32.04L12.88 31.81L12.82 31.57L12.77 31.32L12.76 31.05L12.77 17.63L12.78 17.37L12.83 17.11L12.89 16.87L12.98 16.64L13.1 16.43L13.23 16.23L13.39 16.05L13.56 15.88L13.75 15.74L13.95 15.62L14.17 15.52L14.4 15.45L14.64 15.41L14.89 15.39L31.9 15.39L32.15 15.41L32.39 15.45ZM14.89 29.94L14.9 30.14L14.95 30.32L15.03 30.5L15.14 30.65L15.27 30.79L15.41 30.9L15.58 30.98L15.76 31.04L15.95 31.05L30.84 31.05L31.03 31.04L31.21 30.98L31.37 30.9L31.52 30.79L31.65 30.65L31.75 30.5L31.83 30.32L31.88 30.14L31.9 29.94L31.9 24.34L14.89 24.34L14.89 29.94ZM15.71 17.66L15.48 17.74L15.29 17.88L15.12 18.05L14.99 18.26L14.91 18.49L14.89 18.75L14.89 19.87L31.9 19.87L31.9 18.75L31.87 18.49L31.79 18.26L31.66 18.05L31.5 17.88L31.3 17.74L31.08 17.66L30.84 17.63L15.95 17.63L15.71 17.66Z" id="a1wbHuK7oi"></path></defs><g><g><g><use xlink:href="#csOl0EY9N" opacity="1" fill="#000000" fill-opacity="1"></use><g><use xlink:href="#csOl0EY9N" opacity="1" fill-opacity="0" stroke="#000000" stroke-width="2" stroke-opacity="1"></use></g></g><g><use xlink:href="#a2CYeUXPNM" opacity="1" fill="#ffffff" fill-opacity="1"></use><g><use xlink:href="#a2CYeUXPNM" opacity="1" fill-opacity="0" stroke="#ffffff" stroke-width="2" stroke-opacity="1"></use></g></g><g><use xlink:href="#aCBtbxZgE" opacity="1" fill="#4a90d6" fill-opacity="1"></use><g><use xlink:href="#aCBtbxZgE" opacity="1" fill-opacity="0" stroke="#ffffff" stroke-width="2" stroke-opacity="1"></use></g></g><g><use xlink:href="#bak1R6kHW" opacity="1" fill="#358104" fill-opacity="1"></use><g><use xlink:href="#bak1R6kHW" opacity="1" fill-opacity="0" stroke="#358104" stroke-width="2" stroke-opacity="1"></use></g></g><g><use xlink:href="#a1wbHuK7oi" opacity="1" fill="#ffffff" fill-opacity="1"></use><g><use xlink:href="#a1wbHuK7oi" opacity="1" fill-opacity="0" stroke="#000000" stroke-width="1" stroke-opacity="0"></use></g></g></g></g></svg>