<?xml version="1.0" encoding="UTF-8" standalone="no"?>
<!DOCTYPE svg PUBLIC "-//W3C//DTD SVG 1.1//EN" "http://www.w3.org/Graphics/SVG/1.1/DTD/svg11.dtd">
<svg version="1.1" xmlns="http://www.w3.org/2000/svg" xmlns:xlink="http://www.w3.org/1999/xlink" preserveAspectRatio="xMidYMid meet" viewBox="0 0 46 46" width="46" height="46"><defs><path d="M0 23.01C0 10.3 10.3 0 23.01 0C35.7 0 46 10.3 46 23.01C46 35.71 35.7 46 23.01 46C10.3 46 0 35.71 0 23.01Z" id="aBa2C1YC6"></path><path d="M23.09 8.03L23.33 8.09L23.6 8.16L23.84 8.23L24.07 8.31L24.3 8.42L24.53 8.54L24.72 8.68L24.93 8.83L25.11 8.99L25.29 9.16L25.44 9.33L25.6 9.52L25.85 9.94L25.94 10.15L26.02 10.37L26.09 10.62L26.15 10.84L26.17 11.08L26.18 11.34L26.18 23L28.28 23L28.54 23.03L28.8 23.09L29.05 23.14L29.3 23.23L29.52 23.31L29.75 23.42L29.98 23.54L30.19 23.68L30.39 23.81L30.56 23.97L30.74 24.14L31.05 24.52L31.18 24.71L31.3 24.92L31.41 25.15L31.55 25.6L31.6 25.84L31.63 26.08L31.63 33.83L31.65 33.95L31.65 34.07L31.72 34.31L31.76 34.41L31.86 34.62L32 34.83L32.18 35L32.27 35.07L32.36 35.16L32.46 35.23L32.58 35.28L32.69 35.33L32.81 35.38L33.06 35.45L33.18 35.47L33.32 35.49L33.59 35.49L33.73 35.47L33.85 35.45L34.1 35.38L34.34 35.28L34.45 35.23L34.55 35.16L34.64 35.07L34.75 35L34.83 34.92L34.91 34.83L35.05 34.62L35.2 34.31L35.24 34.19L35.27 33.95L35.27 21.82L35.19 21.86L34.89 21.96L34.78 21.98L34.68 22.01L34.59 22.03L34.48 22.06L34.17 22.12L34.08 22.13L33.97 22.15L33.85 22.15L33.74 22.17L33.2 22.17L33.08 22.15L32.97 22.15L32.69 22.12L32.43 22.06L32.16 22L31.92 21.93L31.65 21.82L31.42 21.72L31.18 21.6L30.95 21.46L30.74 21.32L30.32 21.01L30.14 20.83L29.79 20.45L29.63 20.25L29.49 20.04L29.37 19.81L29.15 19.36L29.01 18.88L28.96 18.64L28.93 18.36L28.91 18.08L28.93 17.8L28.94 17.54L28.98 17.28L29.03 17.02L29.21 16.54L29.31 16.3L29.56 15.85L29.72 15.64L29.88 15.45L30.23 15.07L30.44 14.89L30.86 14.58L31.09 14.46L31.34 14.32L31.58 14.22L31.85 14.11L28.96 11.48L28.89 11.41L28.73 11.2L28.68 11.12L28.64 11.03L28.63 10.94L28.59 10.86L28.57 10.77L28.57 10.42L28.59 10.34L28.63 10.25L28.64 10.18L28.68 10.1L28.73 10.01L28.79 9.94L28.84 9.85L28.89 9.78L28.96 9.71L29.03 9.66L29.12 9.61L29.19 9.56L29.28 9.51L29.45 9.44L29.56 9.4L29.74 9.37L30.12 9.37L30.3 9.4L30.4 9.44L30.58 9.51L30.67 9.56L30.74 9.61L30.83 9.66L30.9 9.71L36.7 15.03L36.68 15.05L36.89 15.26L37 15.38L37.09 15.48L37.19 15.6L37.28 15.73L37.35 15.85L37.44 15.98L37.51 16.11L37.65 16.38L37.86 16.94L37.89 17.09L37.93 17.23L37.95 17.39L37.98 17.54L37.98 17.68L38 17.84L38 33.83L37.98 34.15L37.95 34.48L37.88 34.8L37.79 35.11L37.67 35.4L37.53 35.68L37.37 35.96L37.19 36.22L36.98 36.46L36.75 36.7L36.52 36.91L36.26 37.12L35.7 37.46L35.4 37.6L35.08 37.72L34.75 37.83L34.08 37.97L33.71 37.98L33.36 38L32.99 37.97L32.67 37.93L32.36 37.88L32.06 37.79L31.76 37.69L31.49 37.57L31.21 37.43L30.72 37.12L30.26 36.74L30.07 36.53L29.88 36.3L29.7 36.06L29.54 35.82L29.4 35.56L29.15 35.04L29.07 34.76L29 34.47L28.94 34.19L28.91 33.6L28.91 25.49L26.18 25.49L26.18 36.44L26.17 36.56L26.13 36.68L26.11 36.8L26.06 36.91L26.01 37.03L25.95 37.13L25.88 37.24L25.74 37.41L25.66 37.5L25.55 37.58L25.46 37.65L25.36 37.72L25.25 37.77L25 37.88L24.76 37.95L24.64 37.97L24.49 37.98L9.69 37.98L9.55 37.97L9.42 37.95L9.28 37.91L9.16 37.88L9.06 37.83L8.93 37.77L8.83 37.72L8.62 37.58L8.44 37.41L8.3 37.24L8.16 37.03L8.12 36.91L8.07 36.8L8.04 36.68L8 36.44L8 11.08L8.04 10.84L8.09 10.62L8.16 10.37L8.23 10.15L8.33 9.94L8.58 9.52L8.74 9.33L8.9 9.16L9.07 8.99L9.25 8.83L9.44 8.68L9.65 8.54L9.88 8.42L10.11 8.31L10.34 8.23L10.83 8.09L11.09 8.03L11.36 8.02L11.64 8L22.54 8L22.82 8.02L23.09 8.03ZM12.75 11.46L12.17 11.83L11.78 12.36L11.64 13.01L11.64 19.67L22.54 19.67L22.54 13.01L22.4 12.36L22.02 11.83L21.43 11.46L20.73 11.34L13.45 11.34L12.75 11.46ZM32.18 16.82L31.77 17.35L31.63 17.99L31.77 18.65L32.18 19.17L32.74 19.54L33.46 19.67L34.17 19.54L34.75 19.17L35.13 18.65L35.27 17.99L35.13 17.35L34.75 16.82L34.17 16.47L33.46 16.33L32.74 16.47L32.18 16.82Z" id="bJIpDgg43"></path></defs><g><g><g><use xlink:href="#aBa2C1YC6" opacity="1" fill="#ffa500" fill-opacity="1"></use><g><use xlink:href="#aBa2C1YC6" opacity="1" fill-opacity="0" stroke="#000000" stroke-width="1" stroke-opacity="0"></use></g></g><g><use xlink:href="#bJIpDgg43" opacity="1" fill="#ffffff" fill-opacity="1"></use><g><use xlink:href="#bJIpDgg43" opacity="1" fill-opacity="0" stroke="#000000" stroke-width="1" stroke-opacity="0"></use></g></g></g></g></svg>