<?xml version="1.0" encoding="UTF-8" standalone="no"?>
<!DOCTYPE svg PUBLIC "-//W3C//DTD SVG 1.1//EN" "http://www.w3.org/Graphics/SVG/1.1/DTD/svg11.dtd">
<svg version="1.1" xmlns="http://www.w3.org/2000/svg" xmlns:xlink="http://www.w3.org/1999/xlink" preserveAspectRatio="xMidYMid meet" viewBox="0 0 46 46" width="46" height="46"><defs><path d="M31 0C31 27.55 31 42.85 31 45.91C31 45.91 31 45.91 31 45.91C20.76 45.91 15.07 45.91 13.94 45.91C13.94 45.91 13.94 45.91 13.94 45.91C13.94 18.36 13.94 3.06 13.94 0C13.94 0 13.94 0 13.94 0C24.17 0 29.86 0 31 0C31 0 31 0 31 0Z" id="a1edFEnyP7"></path><path d="M22.61 1.87L22.61 6.94" id="g9Xw6xiAt"></path><path d="M22.63 40.48L22.63 45.54" id="a9BwyLikh"></path><path d="M37.84 23.96C37.84 31.83 31.29 38.2 23.22 38.2C15.14 38.2 8.59 31.83 8.59 23.96C8.59 16.09 15.14 9.71 23.22 9.71C31.29 9.71 37.84 16.09 37.84 23.96Z" id="e59jIDPwJQ"></path><path d="M24.05 15.36L24.19 15.39L24.34 15.43L24.48 15.47L24.61 15.52L24.74 15.58L24.87 15.65L24.98 15.73L25.1 15.82L25.2 15.91L25.3 16.01L25.39 16.11L25.48 16.22L25.62 16.46L25.67 16.58L25.72 16.71L25.76 16.85L25.79 16.98L25.8 17.12L25.81 17.27L25.81 24L27 24L27.15 24.02L27.3 24.05L27.44 24.08L27.58 24.13L27.71 24.18L27.84 24.24L27.97 24.31L28.09 24.39L28.2 24.47L28.3 24.56L28.4 24.66L28.58 24.88L28.65 24.99L28.72 25.11L28.78 25.24L28.86 25.5L28.89 25.64L28.91 25.78L28.91 30.25L28.92 30.32L28.92 30.39L28.96 30.53L28.98 30.59L29.04 30.71L29.12 30.83L29.22 30.93L29.27 30.97L29.32 31.02L29.38 31.06L29.45 31.09L29.51 31.12L29.58 31.15L29.72 31.19L29.79 31.2L29.87 31.21L30.02 31.21L30.1 31.2L30.17 31.19L30.31 31.15L30.45 31.09L30.51 31.06L30.57 31.02L30.62 30.97L30.68 30.93L30.73 30.88L30.77 30.83L30.85 30.71L30.94 30.53L30.96 30.46L30.98 30.32L30.98 23.32L30.93 23.34L30.81 23.38L30.76 23.4L30.7 23.41L30.64 23.43L30.59 23.44L30.53 23.46L30.35 23.49L30.3 23.5L30.24 23.51L30.17 23.51L30.11 23.52L29.8 23.52L29.73 23.51L29.67 23.51L29.51 23.49L29.36 23.46L29.21 23.42L29.07 23.38L28.92 23.32L28.79 23.26L28.65 23.19L28.52 23.11L28.4 23.03L28.16 22.85L28.06 22.75L27.86 22.53L27.77 22.41L27.69 22.29L27.62 22.16L27.5 21.9L27.42 21.62L27.39 21.48L27.37 21.32L27.36 21.16L27.37 21L27.38 20.85L27.4 20.7L27.43 20.55L27.53 20.27L27.59 20.13L27.73 19.87L27.82 19.75L27.91 19.64L28.11 19.42L28.23 19.32L28.47 19.14L28.6 19.07L28.74 18.99L28.88 18.93L29.03 18.87L27.39 17.35L27.35 17.31L27.26 17.19L27.23 17.14L27.21 17.09L27.2 17.04L27.18 16.99L27.17 16.94L27.17 16.74L27.18 16.69L27.2 16.64L27.21 16.6L27.23 16.55L27.26 16.5L27.29 16.46L27.32 16.41L27.35 16.37L27.39 16.33L27.43 16.3L27.48 16.27L27.52 16.24L27.57 16.21L27.62 16.19L27.67 16.17L27.73 16.15L27.78 16.14L27.83 16.13L28.05 16.13L28.1 16.14L28.15 16.15L28.21 16.17L28.26 16.19L28.31 16.21L28.36 16.24L28.4 16.27L28.45 16.3L28.49 16.33L31.79 19.4L31.78 19.41L31.9 19.53L31.96 19.6L32.01 19.66L32.07 19.73L32.12 19.8L32.16 19.87L32.21 19.95L32.25 20.02L32.33 20.18L32.45 20.5L32.47 20.59L32.49 20.67L32.5 20.76L32.52 20.85L32.52 20.93L32.53 21.02L32.53 30.25L32.52 30.44L32.5 30.63L32.46 30.81L32.41 30.99L32.34 31.16L32.26 31.32L32.17 31.48L32.07 31.63L31.95 31.77L31.82 31.91L31.69 32.03L31.54 32.15L31.22 32.35L31.05 32.43L30.87 32.5L30.68 32.56L30.3 32.64L30.09 32.65L29.89 32.66L29.68 32.64L29.5 32.62L29.32 32.59L29.15 32.54L28.98 32.48L28.83 32.41L28.67 32.33L28.53 32.24L28.39 32.15L28.13 31.93L28.02 31.81L27.91 31.68L27.81 31.54L27.72 31.4L27.64 31.25L27.5 30.95L27.45 30.79L27.41 30.62L27.38 30.46L27.36 30.12L27.36 25.44L25.81 25.44L25.81 31.76L25.8 31.83L25.78 31.9L25.77 31.97L25.74 32.03L25.71 32.1L25.68 32.16L25.64 32.22L25.56 32.32L25.51 32.37L25.45 32.42L25.4 32.46L25.34 32.5L25.28 32.53L25.14 32.59L25.07 32.61L25 32.63L24.93 32.64L24.85 32.65L16.43 32.65L16.35 32.64L16.28 32.63L16.2 32.61L16.13 32.59L16.07 32.56L16 32.53L15.94 32.5L15.82 32.42L15.77 32.37L15.72 32.32L15.68 32.27L15.64 32.22L15.6 32.16L15.56 32.1L15.54 32.03L15.51 31.97L15.49 31.9L15.47 31.76L15.47 17.12L15.49 16.98L15.52 16.85L15.56 16.71L15.6 16.58L15.66 16.46L15.8 16.22L15.89 16.11L15.98 16.01L16.08 15.91L16.18 15.82L16.29 15.73L16.41 15.65L16.54 15.58L16.67 15.52L16.8 15.47L17.08 15.39L17.23 15.36L17.38 15.35L17.54 15.34L23.74 15.34L23.9 15.35L24.05 15.36ZM29.22 20.43L28.99 20.74L28.91 21.11L28.99 21.49L29.22 21.79L29.54 22L29.95 22.08L30.35 22L30.68 21.79L30.9 21.49L30.98 21.11L30.9 20.74L30.68 20.43L30.35 20.23L29.95 20.15L29.54 20.23L29.22 20.43ZM18.17 17.34L17.84 17.55L17.62 17.86L17.54 18.23L17.54 22.08L23.74 22.08L23.74 18.23L23.66 17.86L23.44 17.55L23.11 17.34L22.71 17.27L18.57 17.27L18.17 17.34Z" id="c2b3E4aevp"></path></defs><g><g><g><use xlink:href="#a1edFEnyP7" opacity="1" fill="#000000" fill-opacity="1"></use><g><use xlink:href="#a1edFEnyP7" opacity="1" fill-opacity="0" stroke="#000000" stroke-width="1" stroke-opacity="0"></use></g></g><g><use xlink:href="#g9Xw6xiAt" opacity="1" fill="#000000" fill-opacity="0"></use><g><use xlink:href="#g9Xw6xiAt" opacity="1" fill-opacity="0" stroke="#ffffff" stroke-width="2" stroke-opacity="1"></use></g></g><g><use xlink:href="#a9BwyLikh" opacity="1" fill="#000000" fill-opacity="0"></use><g><use xlink:href="#a9BwyLikh" opacity="1" fill-opacity="0" stroke="#ffffff" stroke-width="2" stroke-opacity="1"></use></g></g><g><use xlink:href="#e59jIDPwJQ" opacity="1" fill="#ffa500" fill-opacity="1"></use><g><use xlink:href="#e59jIDPwJQ" opacity="1" fill-opacity="0" stroke="#000000" stroke-width="1" stroke-opacity="0"></use></g></g><g><use xlink:href="#c2b3E4aevp" opacity="1" fill="#ffffff" fill-opacity="1"></use><g><use xlink:href="#c2b3E4aevp" opacity="1" fill-opacity="0" stroke="#000000" stroke-width="1" stroke-opacity="0"></use></g></g></g></g></svg>