<?xml version="1.0" encoding="UTF-8" standalone="no"?>
<!DOCTYPE svg PUBLIC "-//W3C//DTD SVG 1.1//EN" "http://www.w3.org/Graphics/SVG/1.1/DTD/svg11.dtd">
<svg version="1.1" xmlns="http://www.w3.org/2000/svg" xmlns:xlink="http://www.w3.org/1999/xlink" preserveAspectRatio="xMidYMid meet" viewBox="0 0 46 46" width="46" height="46"><defs><path d="M31 -0.32C31 27.42 31 42.83 31 45.91C31 45.91 31 45.91 31 45.91C20.76 45.91 15.07 45.91 13.94 45.91C13.94 45.91 13.94 45.91 13.94 45.91C13.94 18.17 13.94 2.76 13.94 -0.32C13.94 -0.32 13.94 -0.32 13.94 -0.32C24.17 -0.32 29.86 -0.32 31 -0.32C31 -0.32 31 -0.32 31 -0.32Z" id="cQxyAJBdx"></path><path d="M22.61 1.42L22.61 6.49" id="bt0eemwPS"></path><path d="M22.61 40.26L22.61 45.32" id="diidstmoz"></path><path d="M37.84 23.96C37.84 31.83 31.29 38.2 23.22 38.2C15.14 38.2 8.59 31.83 8.59 23.96C8.59 16.09 15.14 9.71 23.22 9.71C31.29 9.71 37.84 16.09 37.84 23.96Z" id="d17bO6e8Mo"></path><path d="M37.84 23.96C37.84 31.83 31.29 38.2 23.22 38.2C15.14 38.2 8.59 31.83 8.59 23.96C8.59 16.09 15.14 9.71 23.22 9.71C31.29 9.71 37.84 16.09 37.84 23.96Z" id="aq4lE8bYW"></path><path d="M19.92 19.29C20.24 19.57 20.24 20.04 19.92 20.33C19.8 20.45 18.77 21.39 18.65 21.51C18.33 21.8 17.83 21.8 17.51 21.51C17.22 21.24 14.89 19.09 14.6 18.82C13.66 20.62 13.99 22.83 15.6 24.32C17.1 25.7 19.28 26.06 21.14 25.42C21.78 26.01 26.9 30.73 27.54 31.32C28.36 32.08 29.7 32.08 30.52 31.32C30.52 31.32 30.52 31.32 30.52 31.32C31.35 30.56 31.35 29.33 30.52 28.57C29.88 27.98 24.79 23.28 24.15 22.69C24.89 20.96 24.51 18.91 22.99 17.51C21.37 16.02 18.95 15.72 17.01 16.6C17.3 16.86 19.63 19.02 19.92 19.29Z" id="d7M8vidau"></path></defs><g><g><g><use xlink:href="#cQxyAJBdx" opacity="1" fill="#000000" fill-opacity="1"></use><g><use xlink:href="#cQxyAJBdx" opacity="1" fill-opacity="0" stroke="#000000" stroke-width="1" stroke-opacity="0"></use></g></g><g><use xlink:href="#bt0eemwPS" opacity="1" fill="#000000" fill-opacity="0"></use><g><use xlink:href="#bt0eemwPS" opacity="1" fill-opacity="0" stroke="#ffffff" stroke-width="2" stroke-opacity="1"></use></g></g><g><use xlink:href="#diidstmoz" opacity="1" fill="#000000" fill-opacity="0"></use><g><use xlink:href="#diidstmoz" opacity="1" fill-opacity="0" stroke="#ffffff" stroke-width="2" stroke-opacity="1"></use></g></g><g><use xlink:href="#d17bO6e8Mo" opacity="1" fill="#603101" fill-opacity="1"></use><g><use xlink:href="#d17bO6e8Mo" opacity="1" fill-opacity="0" stroke="#000000" stroke-width="1" stroke-opacity="0"></use></g></g><g><use xlink:href="#aq4lE8bYW" opacity="1" fill="#000000" fill-opacity="0"></use><g><use xlink:href="#aq4lE8bYW" opacity="1" fill-opacity="0" stroke="#603101" stroke-width="2" stroke-opacity="1"></use></g></g><g><use xlink:href="#d7M8vidau" opacity="1" fill="#ffffff" fill-opacity="1"></use><g><use xlink:href="#d7M8vidau" opacity="1" fill-opacity="0" stroke="#000000" stroke-width="1" stroke-opacity="0"></use></g></g></g></g></svg>