<?xml version="1.0" encoding="UTF-8" standalone="no"?>
<!DOCTYPE svg PUBLIC "-//W3C//DTD SVG 1.1//EN" "http://www.w3.org/Graphics/SVG/1.1/DTD/svg11.dtd">
<svg version="1.1" xmlns="http://www.w3.org/2000/svg" xmlns:xlink="http://www.w3.org/1999/xlink" preserveAspectRatio="xMidYMid meet" viewBox="0 0 46 46" width="46" height="46"><defs><path d="M0 23.14C-0.08 10.43 10.16 0.08 22.87 0C35.58 -0.07 45.92 10.15 46 22.86C46.07 35.57 35.83 45.92 23.13 46C10.42 46.07 0.08 35.84 0 23.14Z" id="d4sQAxzLBS"></path><path d="M16.38 19.85C15.86 20.35 15.01 20.35 14.49 19.85C14 19.39 10.11 15.75 9.62 15.3C8.05 18.34 8.6 22.09 11.3 24.61C13.79 26.94 17.44 27.55 20.55 26.46C21.61 27.46 30.16 35.44 31.23 36.44C32.61 37.73 34.84 37.73 36.21 36.44C36.21 36.44 36.21 36.44 36.21 36.44C37.59 35.15 37.59 33.07 36.21 31.79C35.15 30.79 26.64 22.85 25.58 21.85C26.81 18.92 26.17 15.46 23.63 13.09C20.93 10.58 16.89 10.06 13.65 11.54C14.13 12 18.03 15.63 18.52 16.09C19.04 16.58 19.04 17.37 18.52 17.86C18.3 18.05 16.6 19.65 16.38 19.85Z" id="ayAoEQ2ti"></path></defs><g><g><g><use xlink:href="#d4sQAxzLBS" opacity="1" fill="#603101" fill-opacity="1"></use><g><use xlink:href="#d4sQAxzLBS" opacity="1" fill-opacity="0" stroke="#000000" stroke-width="1" stroke-opacity="0"></use></g></g><g><use xlink:href="#ayAoEQ2ti" opacity="1" fill="#ffffff" fill-opacity="1"></use><g><use xlink:href="#ayAoEQ2ti" opacity="1" fill-opacity="0" stroke="#000000" stroke-width="1" stroke-opacity="0"></use></g></g></g></g></svg>