<?xml version="1.0" encoding="UTF-8" standalone="no"?>
<!DOCTYPE svg PUBLIC "-//W3C//DTD SVG 1.1//EN" "http://www.w3.org/Graphics/SVG/1.1/DTD/svg11.dtd">
<svg version="1.1" xmlns="http://www.w3.org/2000/svg" xmlns:xlink="http://www.w3.org/1999/xlink" preserveAspectRatio="xMidYMid meet" viewBox="0 0 640 640" width="640" height="640"><defs><path d="M46 0C46 0 46 0 46 0C46 27.6 46 42.93 46 46C46 46 46 46 46 46C18.4 46 3.07 46 0 46C0 46 0 46 0 46C0 18.4 0 3.07 0 0C0 0 0 0 0 0C27.6 0 42.93 0 46 0Z" id="baToMuvzO"></path><path d="M31 1.48C31 1.48 31 1.48 31 1.48C31 28.14 31 42.95 31 45.91C31 45.91 31 45.91 31 45.91C20.76 45.91 15.07 45.91 13.94 45.91C13.94 45.91 13.94 45.91 13.94 45.91C13.94 19.25 13.94 4.44 13.94 1.48C13.94 1.48 13.94 1.48 13.94 1.48C24.17 1.48 29.86 1.48 31 1.48Z" id="a1YMglJip3"></path><path d="M22.61 1.87L22.61 6.94" id="hgSJMq0VO"></path><path d="M22.63 40.48L22.63 45.54" id="a2rVOM1gly"></path><path d="M23.22 9.71C31.29 9.71 37.84 16.09 37.84 23.96C37.84 31.83 31.29 38.2 23.22 38.2C15.14 38.2 8.59 31.83 8.59 23.96C8.59 16.09 15.14 9.71 23.22 9.71Z" id="b1BckQPHKB"></path><path d="M24 0L24 24L0 24L0 0L24 0Z" id="b3OdsmqS6i"></path><path d="M34.61 12L34.61 36L10.61 36L10.61 12L34.61 12Z" id="g5S85mI6jp"></path><path d="M17.01 16.6C17.3 16.86 19.63 19.02 19.92 19.29C20.24 19.57 20.24 20.04 19.92 20.33C19.8 20.45 18.77 21.39 18.65 21.51C18.33 21.8 17.83 21.8 17.51 21.51C17.22 21.24 14.89 19.09 14.6 18.82C13.66 20.62 13.99 22.83 15.6 24.32C17.1 25.7 19.28 26.06 21.14 25.42C21.78 26.01 26.9 30.73 27.54 31.32C28.36 32.08 29.7 32.08 30.52 31.32C30.52 31.32 30.52 31.32 30.52 31.32C31.35 30.56 31.35 29.33 30.52 28.57C29.88 27.98 24.79 23.28 24.15 22.69C24.89 20.96 24.51 18.91 22.99 17.51C21.37 16.02 18.95 15.72 17.01 16.6Z" id="a1xnOscDpT"></path></defs><g><g><g><use xlink:href="#baToMuvzO" opacity="1" fill="#000000" fill-opacity="0"></use><g><use xlink:href="#baToMuvzO" opacity="1" fill-opacity="0" stroke="#000000" stroke-width="1" stroke-opacity="0"></use></g></g><g><use xlink:href="#a1YMglJip3" opacity="1" fill="#000000" fill-opacity="1"></use><g><use xlink:href="#a1YMglJip3" opacity="1" fill-opacity="0" stroke="#000000" stroke-width="2" stroke-opacity="1"></use></g></g><g><use xlink:href="#hgSJMq0VO" opacity="1" fill="#ffffff" fill-opacity="1"></use><g><use xlink:href="#hgSJMq0VO" opacity="1" fill-opacity="0" stroke="#ffffff" stroke-width="2" stroke-opacity="1"></use></g></g><g><use xlink:href="#a2rVOM1gly" opacity="1" fill="#4a90d6" fill-opacity="1"></use><g><use xlink:href="#a2rVOM1gly" opacity="1" fill-opacity="0" stroke="#ffffff" stroke-width="2" stroke-opacity="1"></use></g></g><g><use xlink:href="#b1BckQPHKB" opacity="1" fill="#603101" fill-opacity="1"></use><g><use xlink:href="#b1BckQPHKB" opacity="1" fill-opacity="0" stroke="#603101" stroke-width="2" stroke-opacity="1"></use></g></g><g><use xlink:href="#b3OdsmqS6i" opacity="1" fill="#000000" fill-opacity="0"></use><g><use xlink:href="#b3OdsmqS6i" opacity="1" fill-opacity="0" stroke="#000000" stroke-width="1" stroke-opacity="0"></use></g></g><g><use xlink:href="#g5S85mI6jp" opacity="1" fill="#000000" fill-opacity="0"></use><g><use xlink:href="#g5S85mI6jp" opacity="1" fill-opacity="0" stroke="#000000" stroke-width="1" stroke-opacity="0"></use></g></g><g><use xlink:href="#a1xnOscDpT" opacity="1" fill="#ffffff" fill-opacity="1"></use><g><use xlink:href="#a1xnOscDpT" opacity="1" fill-opacity="0" stroke="#000000" stroke-width="1" stroke-opacity="0"></use></g></g></g></g></svg>